<svg width="42" height="36" viewBox="0 0 42 36" fill="none" xmlns="http://www.w3.org/2000/svg">
<g filter="url(#filter0_d_284_39)">
<path d="M36.7778 1.01457C35.3946 1.99332 33.863 2.74191 32.2422 3.23151C31.3723 2.22811 30.2162 1.51692 28.9302 1.19414C27.6442 0.871354 26.2904 0.952548 25.0519 1.42674C23.8134 1.90093 22.75 2.74523 22.0054 3.84546C21.2609 4.94569 20.8711 6.24877 20.8889 7.57844V9.02742C18.3505 9.09345 15.8352 8.5287 13.567 7.38348C11.2989 6.23825 9.34824 4.5481 7.88889 2.46355C7.88889 2.46355 2.11111 15.5043 15.1111 21.3003C12.1363 23.3259 8.59256 24.3416 5 24.1982C18 31.4431 33.8889 24.1982 33.8889 7.53497C33.8876 7.13136 33.8489 6.72875 33.7733 6.33232C35.2475 4.87391 36.2879 3.03258 36.7778 1.01457V1.01457Z" stroke="#23B123" stroke-linecap="round" stroke-linejoin="round" shape-rendering="crispEdges"/>
</g>
<defs>
<filter id="filter0_d_284_39" x="0.5" y="0.5" width="40.7637" height="35" filterUnits="userSpaceOnUse" color-interpolation-filters="sRGB">
<feFlood flood-opacity="0" result="BackgroundImageFix"/>
<feColorMatrix in="SourceAlpha" type="matrix" values="0 0 0 0 0 0 0 0 0 0 0 0 0 0 0 0 0 0 127 0" result="hardAlpha"/>
<feOffset dy="4"/>
<feGaussianBlur stdDeviation="2"/>
<feComposite in2="hardAlpha" operator="out"/>
<feColorMatrix type="matrix" values="0 0 0 0 0 0 0 0 0 0 0 0 0 0 0 0 0 0 0.25 0"/>
<feBlend mode="normal" in2="BackgroundImageFix" result="effect1_dropShadow_284_39"/>
<feBlend mode="normal" in="SourceGraphic" in2="effect1_dropShadow_284_39" result="shape"/>
</filter>
</defs>
</svg>
